# Blender v2.79 (sub 0) OBJ File: ''
# www.blender.org
mtllib meat.mtl
o Mesh_0153.rip
v 0.200882 0.569992 -0.048498
v 0.284143 0.511823 0.004368
v 0.199343 0.522393 -0.003856
v 0.200823 0.568678 0.051708
v 0.379774 0.554671 0.080679
v 0.287521 0.612703 0.007015
v 0.202359 0.618370 0.000138
v 0.379962 0.558910 -0.057151
v 0.352617 0.486759 0.008991
v 0.384094 0.469893 0.067422
v 0.427972 0.486737 0.073139
v 0.414957 0.429347 0.050692
v 0.371168 0.432985 0.007058
v 0.380266 0.475763 -0.052789
v 0.428049 0.493379 -0.054934
v 0.414957 0.429347 -0.039222
v 0.419502 0.414743 0.006274
v 0.455113 0.461434 0.007386
v 0.452021 0.522271 0.010716
v 0.430337 0.554259 0.011761
v 0.368792 0.630982 0.014532
v 0.416018 0.627407 -0.053965
v 0.459056 0.588405 0.012993
v 0.415798 0.622461 0.076284
v 0.398345 0.671075 0.015107
v 0.447373 0.658627 0.015681
v 0.180512 0.663644 -0.094738
v 0.123173 0.724589 -0.001433
v 0.175494 0.707184 -0.001433
v 0.180512 0.672039 0.110603
v 0.121187 0.671665 0.124193
v 0.127303 0.571969 0.173232
v 0.180512 0.571969 0.142763
v 0.180512 0.465870 0.105058
v 0.126937 0.450887 0.115171
v 0.175494 0.418423 -0.001433
v 0.123173 0.402970 -0.001433
v 0.126937 0.454440 -0.116017
v 0.180512 0.466957 -0.088042
v 0.127303 0.571969 -0.169117
v 0.180512 0.571969 -0.133200
v 0.121459 0.672817 -0.113968
v 0.065516 0.720268 -0.001433
v 0.056524 0.668827 0.116997
v 0.059876 0.571969 0.164861
v 0.068025 0.454098 0.110816
v 0.065516 0.405822 -0.001433
v 0.068025 0.466758 -0.103814
v 0.059876 0.571969 -0.161897
v 0.057068 0.664444 -0.110936
v 0.006422 0.668527 -0.096326
v 0.006422 0.713587 -0.001433
v 0.006422 0.671034 0.103410
v 0.006422 0.571969 0.150548
v 0.006422 0.463482 0.100546
v 0.006422 0.414556 -0.001433
v 0.006422 0.472755 -0.086943
v 0.006422 0.571969 -0.151986
v -0.047263 0.694419 -0.125079
v -0.056217 0.756307 -0.001433
v -0.046687 0.697940 0.129783
v -0.050239 0.571969 0.182062
v -0.058877 0.437751 0.122594
v -0.056217 0.380889 -0.001433
v -0.058877 0.440703 -0.120047
v -0.050239 0.571969 -0.182488
v -0.115517 0.702468 -0.131347
v -0.117334 0.754061 -0.001433
v -0.115228 0.699148 0.131022
v -0.121712 0.571969 0.184371
v -0.121324 0.435242 0.126501
v -0.117334 0.382910 -0.001433
v -0.121324 0.437278 -0.129468
v -0.121712 0.571969 -0.184371
v -0.178114 0.695309 -0.121802
v -0.172794 0.735754 -0.001433
v -0.178114 0.698431 0.117888
v -0.178114 0.571969 0.168572
v -0.178114 0.439478 0.124269
v -0.172794 0.392343 -0.001433
v -0.178114 0.440565 -0.119799
v -0.178114 0.571969 -0.165132
v 0.199754 0.476490 -0.001433
v 0.206055 0.571969 -0.080216
v 0.206055 0.571969 0.082198
v 0.200400 0.655599 -0.001433
v -0.202581 0.679336 -0.001433
v -0.212745 0.571969 0.096676
v -0.202005 0.452019 -0.001433
v -0.212745 0.571969 -0.097740
v -0.207289 0.563416 0.064127
v -0.205806 0.611903 0.005175
v -0.267297 0.621962 0.007443
v -0.207289 0.563416 -0.049861
v -0.332898 0.578131 -0.060080
v -0.270857 0.517026 0.004333
v -0.208822 0.519190 0.001170
v -0.331757 0.573214 0.070802
v -0.316996 0.642063 0.007767
v -0.342375 0.645015 -0.072533
v -0.397590 0.622277 -0.077675
v -0.370274 0.700251 -0.071165
v -0.315198 0.698440 0.009320
v -0.342375 0.640110 0.081587
v -0.397590 0.617372 0.094806
v -0.366381 0.697546 0.091886
v -0.363543 0.742320 0.007717
v -0.431143 0.716635 0.009416
v -0.414806 0.680663 0.087320
v -0.448621 0.641898 0.008157
v -0.418699 0.678463 -0.062425
v -0.426884 0.597941 0.006135
v -0.393535 0.577729 0.004808
v -0.390741 0.527747 -0.051999
v -0.338184 0.523097 -0.055493
v -0.322989 0.507362 0.001850
v -0.338419 0.518027 0.067710
v -0.344300 0.476725 0.000863
v -0.370217 0.495139 -0.039925
v -0.390001 0.479501 0.001850
v -0.369969 0.496077 0.052414
v -0.390943 0.523220 0.061607
v -0.414417 0.527135 0.003493
vt 0.009766 0.015625
vt 0.136719 0.187500
vt 0.009766 0.187500
vt 0.009766 0.015625
vt 0.306641 0.015625
vt 0.136719 0.187500
vt 0.009766 0.187500
vt 0.306641 0.015625
vt 0.251953 0.187500
vt 0.362732 0.099731
vt 0.418398 0.169996
vt 0.370441 0.179524
vt 0.283203 0.203125
vt 0.362732 0.099731
vt 0.418398 0.169996
vt 0.370441 0.179524
vt 0.369141 0.234375
vt 0.478516 0.234375
vt 0.478516 0.078125
vt 0.478516 0.015625
vt 0.251953 0.187500
vt 0.362732 0.099731
vt 0.478516 0.078125
vt 0.362732 0.099731
vt 0.279297 0.210937
vt 0.408203 0.234375
vt 0.492188 0.781250
vt 0.406250 0.984375
vt 0.492188 0.984375
vt 0.492188 0.781250
vt 0.406250 0.781250
vt 0.406250 0.609375
vt 0.492188 0.609375
vt 0.492188 0.453125
vt 0.406250 0.453125
vt 0.492188 0.265625
vt 0.405273 0.265625
vt 0.406250 0.453125
vt 0.492188 0.453125
vt 0.406250 0.609375
vt 0.492188 0.609375
vt 0.406250 0.781250
vt 0.328125 0.984375
vt 0.328125 0.781250
vt 0.328125 0.609375
vt 0.328125 0.453125
vt 0.328125 0.265625
vt 0.328125 0.453125
vt 0.328125 0.609375
vt 0.328125 0.781250
vt 0.250000 0.781250
vt 0.250000 0.984375
vt 0.250000 0.781250
vt 0.250000 0.609375
vt 0.250000 0.453125
vt 0.250000 0.265625
vt 0.250000 0.453125
vt 0.250000 0.609375
vt 0.171875 0.781250
vt 0.171875 0.984375
vt 0.171875 0.781250
vt 0.171875 0.609375
vt 0.171875 0.453125
vt 0.171875 0.265625
vt 0.171875 0.453125
vt 0.171875 0.609375
vt 0.085938 0.781250
vt 0.085938 0.984375
vt 0.085938 0.781250
vt 0.085938 0.609375
vt 0.085938 0.453125
vt 0.085938 0.265625
vt 0.085938 0.453125
vt 0.085938 0.609375
vt 0.007813 0.781250
vt 0.007813 0.984375
vt 0.007813 0.781250
vt 0.007813 0.609375
vt 0.007813 0.453125
vt 0.007813 0.265625
vt 0.007813 0.453125
vt 0.007813 0.609375
vt 0.750000 0.203125
vt 0.595703 0.500000
vt 0.907857 0.500000
vt 0.751953 0.801571
vt 0.562500 0.859375
vt 0.507813 0.500000
vt 0.570313 0.140625
vt 0.750000 0.015625
vt 0.937500 0.156250
vt 0.992188 0.500000
vt 0.945313 0.859375
vt 0.750000 0.984375
vt 0.562500 0.859375
vt 0.751953 0.801571
vt 0.750000 0.984375
vt 0.945313 0.859375
vt 0.907857 0.500000
vt 0.992188 0.500000
vt 0.937500 0.156250
vt 0.750000 0.203125
vt 0.750000 0.015625
vt 0.570313 0.140625
vt 0.595703 0.500000
vt 0.507813 0.500000
vt 0.009766 0.015625
vt 0.009766 0.187500
vt 0.136719 0.187500
vt 0.009766 0.015625
vt 0.306641 0.015625
vt 0.136719 0.187500
vt 0.009766 0.187500
vt 0.306641 0.015625
vt 0.251953 0.187500
vt 0.362732 0.099731
vt 0.418396 0.093628
vt 0.370441 0.179524
vt 0.283203 0.203125
vt 0.362732 0.099731
vt 0.418396 0.093628
vt 0.370441 0.179524
vt 0.369141 0.234375
vt 0.478516 0.234375
vt 0.418398 0.169996
vt 0.478516 0.140625
vt 0.418398 0.169996
vt 0.478516 0.078125
vt 0.478516 0.015625
vt 0.418396 0.093628
vt 0.362732 0.099731
vt 0.251953 0.187500
vt 0.362732 0.099731
vt 0.306641 0.234375
vt 0.389709 0.166870
vt 0.478516 0.171875
vt 0.389709 0.166870
vt 0.418396 0.093628
vt 0.478516 0.078125
vn 0.0106 0.0253 -0.9996
vn -0.2029 -0.9782 -0.0442
vn -0.1172 -0.9910 -0.0653
vn -0.1410 -0.0158 0.9899
vn 0.0612 0.0192 0.9979
vn -0.0545 0.9984 0.0135
vn 0.0669 0.9977 -0.0065
vn 0.1121 0.0852 -0.9900
vn -0.8940 -0.4479 0.0058
vn -0.5477 -0.3689 0.7509
vn 0.5859 -0.1015 0.8040
vn 0.1776 -0.7484 0.6390
vn -0.7022 -0.7120 0.0062
vn -0.5673 -0.2907 -0.7705
vn 0.5980 -0.0036 -0.8015
vn 0.1853 -0.7099 -0.6795
vn 0.2747 -0.9615 0.0049
vn 0.9450 -0.3269 -0.0034
vn 0.9192 0.3935 0.0167
vn 0.9987 -0.0519 -0.0002
vn -0.7014 0.7118 0.0374
vn 0.1139 0.5197 -0.8467
vn 0.9479 -0.3184 0.0050
vn 0.1135 0.4524 0.8846
vn -0.3346 0.9405 0.0582
vn 0.7414 0.6692 0.0505
vn 0.6677 0.5443 -0.5078
vn 0.1139 0.9929 0.0354
vn 0.6676 0.7428 -0.0494
vn 0.6526 0.5616 0.5087
vn -0.0069 0.6758 0.7371
vn 0.1799 -0.0671 0.9814
vn 0.7522 -0.0105 0.6589
vn 0.7341 -0.4372 0.5196
vn 0.1157 -0.8003 0.5883
vn 0.5891 -0.8078 -0.0222
vn 0.1194 -0.9927 -0.0161
vn 0.0755 -0.7373 -0.6713
vn 0.7590 -0.4136 -0.5028
vn 0.2629 0.1057 -0.9590
vn 0.7600 -0.0031 -0.6499
vn 0.0642 0.7718 -0.6326
vn -0.0970 0.9803 -0.1722
vn -0.1358 0.7565 0.6398
vn -0.1886 0.0087 0.9820
vn -0.1479 -0.6572 0.7391
vn -0.1440 -0.9892 0.0285
vn -0.2287 -0.6818 -0.6949
vn -0.1769 -0.0962 -0.9795
vn -0.1313 0.6410 -0.7562
vn 0.2376 0.7792 -0.5800
vn 0.2544 0.9604 0.1133
vn 0.2352 0.7090 0.6648
vn 0.2004 0.0601 0.9779
vn 0.0846 -0.7390 0.6684
vn 0.1876 -0.9571 -0.2206
vn 0.1787 -0.6901 -0.7013
vn 0.1875 -0.0205 -0.9820
vn 0.3951 0.6109 -0.6860
vn 0.2748 0.9592 -0.0661
vn 0.3438 0.6214 0.7041
vn 0.2295 -0.1041 0.9677
vn 0.3138 -0.6216 0.7177
vn 0.2297 -0.9720 0.0499
vn 0.4003 -0.6442 -0.6517
vn 0.2243 -0.0101 -0.9745
vn -0.0136 0.7072 -0.7069
vn -0.1648 0.9863 0.0019
vn -0.0942 0.7040 0.7039
vn -0.0885 0.0124 0.9960
vn -0.0025 -0.7092 0.7050
vn -0.1038 -0.9946 -0.0086
vn -0.0049 -0.7030 -0.7112
vn -0.1664 0.0016 -0.9861
vn -0.6188 0.5706 -0.5399
vn -0.6511 0.7590 -0.0084
vn -0.6560 0.6080 0.4472
vn -0.5668 0.1078 0.8168
vn -0.5776 -0.5838 0.5706
vn -0.6106 -0.7918 -0.0109
vn -0.5953 -0.5687 -0.5676
vn -0.6596 0.0022 -0.7516
vn 0.9671 -0.2540 -0.0136
vn 0.9775 0.0026 -0.2110
vn 0.9833 -0.0007 0.1822
vn 0.9598 0.2801 -0.0201
vn -0.9524 0.3049 -0.0031
vn -0.9792 0.0087 0.2025
vn -0.9582 -0.2861 -0.0046
vn -0.9769 0.0036 -0.2135
vn 0.1083 -0.0360 0.9935
vn 0.1607 0.9868 -0.0189
vn 0.2270 0.9738 0.0116
vn 0.0759 0.0045 -0.9971
vn 0.2310 -0.0663 -0.9707
vn 0.0550 -0.9976 -0.0411
vn 0.0321 -0.9981 -0.0521
vn 0.2306 -0.0890 0.9690
vn 0.9505 0.3100 0.0212
vn 0.6816 0.0836 -0.7269
vn -0.4618 -0.3683 -0.8069
vn 0.0924 0.6066 -0.7896
vn 0.9244 0.3815 -0.0001
vn 0.7242 0.0299 0.6889
vn -0.4022 -0.4290 0.8088
vn 0.1988 0.5637 0.8017
vn 0.1909 0.9816 -0.0019
vn -0.6604 0.7509 0.0003
vn -0.6864 0.2871 0.6682
vn -0.9897 -0.1431 -0.0056
vn -0.7201 0.2785 -0.6355
vn -0.7363 -0.6761 -0.0271
vn -0.9615 -0.2743 -0.0173
vn -0.6366 -0.1075 -0.7637
vn 0.4698 -0.4523 -0.7581
vn 0.8113 -0.5834 -0.0379
vn 0.4626 -0.4979 0.7336
vn 0.4307 -0.9015 -0.0434
vn -0.1169 -0.7395 -0.6629
vn -0.6101 -0.7917 -0.0317
vn -0.1349 -0.7861 0.6031
vn -0.6547 -0.1267 0.7452
vn -0.9990 -0.0435 -0.0122
usemtl meat
s 1
f 1/1/1 2/2/2 3/3/3
f 3/3/3 2/2/2 4/4/4
f 2/2/2 5/5/5 4/4/4
f 5/5/5 6/6/6 4/4/4
f 4/4/4 6/6/6 7/7/7
f 7/7/7 6/6/6 1/1/1
f 6/6/6 8/8/8 1/1/1
f 1/1/1 8/8/8 2/2/2
f 8/8/8 9/9/9 2/2/2
f 2/2/2 9/9/9 5/5/5
f 9/9/9 10/10/10 5/5/5
f 5/5/5 10/10/10 11/11/11
f 11/11/11 10/10/10 12/12/12
f 12/12/12 10/10/10 13/13/13
f 10/10/10 9/9/9 13/13/13
f 13/13/13 9/9/9 14/14/14
f 9/9/9 8/8/8 14/14/14
f 8/8/8 15/15/15 14/14/14
f 15/15/15 16/16/16 14/14/14
f 14/14/14 16/16/16 13/13/13
f 16/16/16 17/17/17 13/13/13
f 13/13/13 17/17/17 12/12/12
f 12/12/12 17/17/17 18/18/18
f 17/17/17 16/16/16 18/18/18
f 16/16/16 15/15/15 18/18/18
f 18/18/18 15/15/15 19/19/19
f 15/15/15 8/8/8 19/19/19
f 8/8/8 20/20/20 19/19/19
f 20/20/20 5/5/5 19/19/19
f 5/5/5 11/11/11 19/19/19
f 19/19/19 11/11/11 18/18/18
f 11/11/11 12/12/12 18/18/18
f 5/5/5 21/21/21 6/6/6
f 6/6/6 21/21/21 8/8/8
f 21/21/21 22/22/22 8/8/8
f 22/22/22 23/23/23 8/8/8
f 8/8/8 23/23/23 20/20/20
f 20/20/20 23/23/23 5/5/5
f 23/23/23 24/24/24 5/5/5
f 5/5/5 24/24/24 21/21/21
f 24/24/24 25/25/25 21/21/21
f 21/21/21 25/25/25 22/22/22
f 25/25/25 26/26/26 22/22/22
f 22/22/22 26/26/26 23/23/23
f 23/23/23 26/26/26 24/24/24
f 26/26/26 25/25/25 24/24/24
f 27/27/27 28/28/28 29/29/29
f 29/29/29 28/28/28 30/30/30
f 28/28/28 31/31/31 30/30/30
f 31/31/31 32/32/32 30/30/30
f 30/30/30 32/32/32 33/33/33
f 33/33/33 32/32/32 34/34/34
f 32/32/32 35/35/35 34/34/34
f 34/34/34 35/35/35 36/36/36
f 35/35/35 37/37/37 36/36/36
f 37/37/37 38/38/38 36/36/36
f 36/36/36 38/38/38 39/39/39
f 38/38/38 40/40/40 39/39/39
f 39/39/39 40/40/40 41/41/41
f 41/41/41 40/40/40 27/27/27
f 40/40/40 42/42/42 27/27/27
f 27/27/27 42/42/42 28/28/28
f 42/42/42 43/43/43 28/28/28
f 43/43/43 44/44/44 28/28/28
f 28/28/28 44/44/44 31/31/31
f 44/44/44 45/45/45 31/31/31
f 31/31/31 45/45/45 32/32/32
f 45/45/45 46/46/46 32/32/32
f 32/32/32 46/46/46 35/35/35
f 46/46/46 47/47/47 35/35/35
f 35/35/35 47/47/47 37/37/37
f 37/37/37 47/47/47 38/38/38
f 47/47/47 48/48/48 38/38/38
f 48/48/48 49/49/49 38/38/38
f 38/38/38 49/49/49 40/40/40
f 49/49/49 50/50/50 40/40/40
f 40/40/40 50/50/50 42/42/42
f 42/42/42 50/50/50 43/43/43
f 50/50/50 51/51/51 43/43/43
f 51/51/51 52/52/52 43/43/43
f 43/43/43 52/52/52 44/44/44
f 52/52/52 53/53/53 44/44/44
f 53/53/53 54/54/54 44/44/44
f 44/44/44 54/54/54 45/45/45
f 54/54/54 55/55/55 45/45/45
f 45/45/45 55/55/55 46/46/46
f 46/46/46 55/55/55 47/47/47
f 55/55/55 56/56/56 47/47/47
f 47/47/47 56/56/56 48/48/48
f 56/56/56 57/57/57 48/48/48
f 57/57/57 58/58/58 48/48/48
f 48/48/48 58/58/58 49/49/49
f 49/49/49 58/58/58 50/50/50
f 50/50/50 58/58/58 51/51/51
f 58/58/58 59/59/59 51/51/51
f 59/59/59 60/60/60 51/51/51
f 51/51/51 60/60/60 52/52/52
f 60/60/60 61/61/61 52/52/52
f 52/52/52 61/61/61 53/53/53
f 53/53/53 61/61/61 54/54/54
f 61/61/61 62/62/62 54/54/54
f 62/62/62 63/63/63 54/54/54
f 54/54/54 63/63/63 55/55/55
f 63/63/63 64/64/64 55/55/55
f 55/55/55 64/64/64 56/56/56
f 64/64/64 65/65/65 56/56/56
f 56/56/56 65/65/65 57/57/57
f 57/57/57 65/65/65 58/58/58
f 65/65/65 66/66/66 58/58/58
f 58/58/58 66/66/66 59/59/59
f 66/66/66 67/67/67 59/59/59
f 59/59/59 67/67/67 60/60/60
f 67/67/67 68/68/68 60/60/60
f 68/68/68 69/69/69 60/60/60
f 60/60/60 69/69/69 61/61/61
f 69/69/69 70/70/70 61/61/61
f 61/61/61 70/70/70 62/62/62
f 70/70/70 71/71/71 62/62/62
f 62/62/62 71/71/71 63/63/63
f 63/63/63 71/71/71 64/64/64
f 71/71/71 72/72/72 64/64/64
f 72/72/72 73/73/73 64/64/64
f 64/64/64 73/73/73 65/65/65
f 65/65/65 73/73/73 66/66/66
f 73/73/73 74/74/74 66/66/66
f 66/66/66 74/74/74 67/67/67
f 74/74/74 75/75/75 67/67/67
f 67/67/67 75/75/75 68/68/68
f 75/75/75 76/76/76 68/68/68
f 76/76/76 77/77/77 68/68/68
f 68/68/68 77/77/77 69/69/69
f 77/77/77 78/78/78 69/69/69
f 69/69/69 78/78/78 70/70/70
f 78/78/78 79/79/79 70/70/70
f 70/70/70 79/79/79 71/71/71
f 71/71/71 79/79/79 72/72/72
f 79/79/79 80/80/80 72/72/72
f 80/80/80 81/81/81 72/72/72
f 72/72/72 81/81/81 73/73/73
f 73/73/73 81/81/81 74/74/74
f 81/81/81 82/82/82 74/74/74
f 74/74/74 82/82/82 75/75/75
f 83/83/83 84/84/84 85/85/85
f 85/85/85 84/84/84 86/86/86
f 86/86/86 84/84/84 27/87/27
f 27/87/27 84/84/84 41/88/41
f 41/88/41 84/84/84 39/89/39
f 84/84/84 83/83/83 39/89/39
f 39/89/39 83/83/83 36/90/36
f 36/90/36 83/83/83 34/91/34
f 83/83/83 85/85/85 34/91/34
f 34/91/34 85/85/85 33/92/33
f 33/92/33 85/85/85 30/93/30
f 85/85/85 86/86/86 30/93/30
f 30/93/30 86/86/86 29/94/29
f 86/86/86 27/87/27 29/94/29
f 75/95/75 87/96/87 76/97/76
f 76/97/76 87/96/87 77/98/77
f 87/96/87 88/99/88 77/98/77
f 77/98/77 88/99/88 78/100/78
f 78/100/78 88/99/88 79/101/79
f 88/99/88 89/102/89 79/101/79
f 79/101/79 89/102/89 80/103/80
f 80/103/80 89/102/89 81/104/81
f 89/102/89 90/105/90 81/104/81
f 81/104/81 90/105/90 82/106/82
f 82/106/82 90/105/90 75/95/75
f 75/95/75 90/105/90 87/96/87
f 87/96/87 90/105/90 88/99/88
f 90/105/90 89/102/89 88/99/88
f 91/107/91 92/108/92 93/109/93
f 92/108/92 94/110/94 93/109/93
f 93/109/93 94/110/94 95/111/95
f 95/111/95 94/110/94 96/112/96
f 94/110/94 97/113/97 96/112/96
f 97/113/97 91/107/91 96/112/96
f 96/112/96 91/107/91 98/114/98
f 91/107/91 93/109/93 98/114/98
f 98/114/98 93/109/93 99/115/99
f 93/109/93 95/111/95 99/115/99
f 99/115/99 95/111/95 100/116/100
f 95/111/95 101/117/101 100/116/100
f 101/117/101 102/118/102 100/116/100
f 102/118/102 103/119/103 100/116/100
f 100/116/100 103/119/103 99/115/99
f 103/119/103 104/120/104 99/115/99
f 99/115/99 104/120/104 98/114/98
f 98/114/98 104/120/104 105/121/105
f 105/121/105 104/120/104 106/122/106
f 104/120/104 103/119/103 106/122/106
f 106/122/106 103/119/103 107/123/107
f 103/119/103 102/118/102 107/123/107
f 102/118/102 108/124/108 107/123/107
f 107/123/107 108/124/108 106/122/106
f 108/124/108 109/125/109 106/122/106
f 106/122/106 109/125/109 105/121/105
f 105/121/105 109/125/109 110/126/110
f 109/125/109 108/124/108 110/126/110
f 110/126/110 108/124/108 111/127/111
f 108/124/108 102/118/102 111/127/111
f 102/118/102 101/117/101 111/127/111
f 111/127/111 101/117/101 110/126/110
f 101/117/101 112/128/112 110/126/110
f 110/126/110 112/128/112 105/121/105
f 105/121/105 112/128/112 113/129/113
f 112/128/112 101/117/101 113/129/113
f 101/117/101 95/111/95 113/129/113
f 113/129/113 95/111/95 114/130/114
f 114/130/114 95/111/95 115/131/115
f 115/131/115 95/111/95 116/132/116
f 95/111/95 96/112/96 116/132/116
f 96/112/96 98/114/98 116/132/116
f 98/114/98 117/133/117 116/132/116
f 117/133/117 118/134/118 116/132/116
f 116/132/116 118/134/118 115/131/115
f 118/134/118 119/135/119 115/131/115
f 115/131/115 119/135/119 114/130/114
f 114/130/114 119/135/119 120/136/120
f 119/135/119 118/134/118 120/136/120
f 120/136/120 118/134/118 121/137/121
f 118/134/118 117/133/117 121/137/121
f 121/137/121 117/133/117 122/138/122
f 117/133/117 98/114/98 122/138/122
f 122/138/122 98/114/98 113/129/113
f 98/114/98 105/121/105 113/129/113
f 121/137/121 122/138/122 120/136/120
f 120/136/120 122/138/122 123/139/123
f 122/138/122 113/129/113 123/139/123
f 113/129/113 114/130/114 123/139/123
f 123/139/123 114/130/114 120/136/120
